<svg width="96" height="96" viewBox="0 0 96 96" fill="none" xmlns="http://www.w3.org/2000/svg">
<g opacity="0.9">
<path d="M92.7961 16.3794C90.5054 13.9288 87.2511 12.5248 83.8683 12.5248H69.3011C69.2027 12.3499 69.0877 12.1829 68.9402 12.0378L65.371 8.5257C64.5136 7.68281 63.1192 7.68203 62.2618 8.5257L60.3074 10.4487C58.4435 9.31474 56.4313 8.49292 54.3088 7.9989V5.28447C54.3088 4.09193 53.3221 3.12183 52.1101 3.12183H47.0632C45.8513 3.12183 44.8646 4.09193 44.8646 5.28447V7.99968C42.7421 8.49371 40.7291 9.31553 38.8659 10.4495L36.9116 8.52648C36.0534 7.68359 34.6598 7.68281 33.8024 8.52648L30.2332 12.0385C30.0856 12.1837 29.9706 12.3507 29.8723 12.5255H15.3043C11.9207 12.5255 8.66712 13.9304 6.37648 16.3802C4.08583 18.8301 2.93336 22.1376 3.21414 25.4546L8.26182 85.0541C8.78213 91.1916 14.0923 96 20.352 96H78.8206C85.0802 96 90.3904 91.1916 90.9108 85.0541L95.9584 25.4546C96.2392 22.1369 95.0867 18.8293 92.7961 16.3794Z" fill="white"/>
<path d="M75.648 92.0977H17.1793C11.2822 92.0977 6.36935 87.6499 5.87918 81.8667L0.831499 22.2672C0.280253 15.762 5.49766 10.1833 12.1317 10.1833L80.6949 10.1833C87.3289 10.1833 92.5455 15.762 91.995 22.2672L86.9474 81.8667C86.458 87.6499 81.5451 92.0977 75.648 92.0977Z" fill="#1443B7"/>
<path d="M50.3422 43.3903V46.7322C50.3422 47.4962 49.7132 48.1151 48.9367 48.1151H43.8899C43.1133 48.1151 42.4844 47.4962 42.4844 46.7322V43.3903C41.2351 43.1405 40.0287 42.7729 38.8787 42.3015V92.0977H53.9487V42.3023C52.7978 42.7737 51.5922 43.1405 50.3422 43.3903Z" fill="#1443B7"/>
<path d="M67.1826 51.4454C71.683 51.024 81.7895 56.4997 81.6007 63.1507C81.362 71.5812 76.4912 71.6218 73.2749 75.51C71.9361 77.1279 70.6432 83.487 70.6432 83.487C70.6432 83.487 68.696 90.7679 61.3148 88.5998C57.6243 87.5158 57.7972 83.5097 58.2025 81.0879C58.6165 78.6162 60.0783 76.4341 62.1326 74.9551C63.6642 73.8523 65.5035 72.492 65.9072 72.0401C66.6243 71.2362 69.0727 67.0865 65.3203 61.9948C61.9422 57.4112 61.7114 51.9574 67.1826 51.4454Z" fill="white"/>
<path d="M80.5559 51.7057C81.1729 50.3273 80.8663 48.8602 79.871 48.4289C78.8758 47.9976 77.5689 48.7654 76.9519 50.1438C76.3349 51.5222 76.6415 52.9893 77.6367 53.4206C78.632 53.8519 79.9389 53.0842 80.5559 51.7057Z" fill="white"/>
<path d="M76.3074 48.4625C76.776 46.7069 76.1175 45.0153 74.8366 44.6842C73.5556 44.3532 72.1373 45.508 71.6686 47.2636C71.2 49.0192 71.8585 50.7108 73.1394 51.0418C74.4204 51.3729 75.8387 50.2181 76.3074 48.4625Z" fill="white"/>
<path d="M70.5018 46.4626C71.0909 44.2556 70.2626 42.1289 68.6517 41.7125C67.0407 41.2962 65.2572 42.7478 64.6681 44.9548C64.0789 47.1618 64.9072 49.2885 66.5182 49.7048C68.1291 50.1212 69.9126 48.6696 70.5018 46.4626Z" fill="white"/>
<path d="M82.8173 55.366C83.42 54.5025 83.4033 53.461 82.7799 53.0397C82.1565 52.6184 81.1626 52.9768 80.5599 53.8402C79.9571 54.7036 79.9738 55.7451 80.5972 56.1664C81.2206 56.5878 82.2145 56.2294 82.8173 55.366Z" fill="white"/>
<path d="M85.1158 58.7783C85.7186 57.9149 85.7019 56.8734 85.0785 56.4521C84.4551 56.0307 83.4612 56.3891 82.8584 57.2526C82.2557 58.116 82.2724 59.1575 82.8958 59.5788C83.5192 60.0001 84.5131 59.6417 85.1158 58.7783Z" fill="white"/>
<path d="M25.6448 51.4454C21.1444 51.024 11.038 56.4997 11.2267 63.1507C11.4655 71.5812 16.3363 71.6218 19.5525 75.51C20.8914 77.1279 22.1842 83.487 22.1842 83.487C22.1842 83.487 24.1315 90.7679 31.5126 88.5998C35.2032 87.5158 35.0303 83.5097 34.625 81.0879C34.2109 78.6162 32.7491 76.4341 30.6949 74.9551C29.1633 73.8523 27.3239 72.492 26.9202 72.0401C26.2032 71.2362 23.7547 67.0865 27.5072 61.9948C30.8844 57.4112 31.116 51.9574 25.6448 51.4454Z" fill="white"/>
<path d="M15.1442 53.4334C16.1395 53.0021 16.4461 51.535 15.8291 50.1566C15.2121 48.7782 13.9052 48.0104 12.9099 48.4417C11.9147 48.873 11.6081 50.3401 12.2251 51.7185C12.8421 53.0969 14.149 53.8647 15.1442 53.4334Z" fill="white"/>
<path d="M19.6713 51.0174C20.9522 50.6863 21.6107 48.9947 21.1421 47.2391C20.6734 45.4835 19.2551 44.3287 17.9742 44.6598C16.6932 44.9909 16.0347 46.6825 16.5033 48.4381C16.972 50.1937 18.3903 51.3485 19.6713 51.0174Z" fill="white"/>
<path d="M26.2925 49.6818C27.9035 49.2654 28.7318 47.1387 28.1426 44.9317C27.5535 42.7247 25.77 41.2731 24.159 41.6895C22.5481 42.1058 21.7198 44.2325 22.3089 46.4395C22.8981 48.6465 24.6816 50.0981 26.2925 49.6818Z" fill="white"/>
<path d="M12.1771 56.1519C12.8005 55.7306 12.8172 54.6891 12.2145 53.8257C11.6117 52.9623 10.6178 52.6039 9.99443 53.0252C9.37106 53.4465 9.35433 54.488 9.95707 55.3515C10.5598 56.2149 11.5538 56.5733 12.1771 56.1519Z" fill="white"/>
<path d="M9.87732 59.5636C10.5007 59.1422 10.5174 58.1007 9.91468 57.2373C9.31194 56.3739 8.31799 56.0155 7.69462 56.4368C7.07126 56.8582 7.05453 57.8996 7.65726 58.7631C8.26 59.6265 9.25395 59.9849 9.87732 59.5636Z" fill="white"/>
<path d="M60.6905 24.4478C60.6905 32.1736 54.2984 38.4359 46.4136 38.4359C38.5288 38.4359 32.1367 32.1736 32.1367 24.4478C32.1367 16.7221 38.5288 10.4597 46.4136 10.4597C54.2984 10.4597 60.6905 16.7221 60.6905 24.4478Z" fill="white"/>
<path d="M46.4136 36.0945C38.9317 36.0945 32.8054 30.4534 32.197 23.2771C32.1645 23.6642 32.1367 24.0529 32.1367 24.4478C32.1367 32.1735 38.5288 38.4359 46.4136 38.4359C54.2984 38.4359 60.6905 32.1735 60.6905 24.4478C60.6905 24.0529 60.6628 23.6642 60.6302 23.2771C60.0219 30.4534 53.8947 36.0945 46.4136 36.0945Z" fill="white"/>
<path d="M48.0658 29.1548H44.7607L46.4137 14.8467L48.0658 29.1548Z" fill="#1443B7"/>
<path d="M48.7931 24.4479C48.7931 25.7357 47.7279 26.7791 46.4137 26.7791C45.0994 26.7791 44.0342 25.7357 44.0342 24.4479C44.0342 23.1602 45.0994 22.1167 46.4137 22.1167C47.7279 22.1159 48.7931 23.1602 48.7931 24.4479Z" fill="#1443B7"/>
<path d="M70.4662 26.9303V21.9642C70.4662 21.2002 69.8373 20.5813 69.0607 20.5813H65.6644C65.1552 18.1135 64.1662 15.8182 62.8011 13.7897L65.206 11.4234C65.7549 10.8833 65.7549 10.0077 65.206 9.46758L61.6376 5.95631C61.0887 5.41623 60.1988 5.41623 59.6499 5.95631L57.245 8.32265C55.1836 6.9787 52.8509 6.00626 50.3429 5.5052V2.16251C50.3429 1.39844 49.714 0.779541 48.9375 0.779541L43.8906 0.779541C43.1141 0.779541 42.4851 1.39844 42.4851 2.16251V5.50442C39.9771 6.00548 37.6444 6.9787 35.583 8.32187L33.1782 5.95553C32.6293 5.41545 31.7394 5.41545 31.1905 5.95553L27.6221 9.4668C27.0732 10.0069 27.0732 10.8825 27.6221 11.4226L30.0269 13.789C28.6611 15.8174 27.6728 18.1127 27.1636 20.5805H23.7673C22.9908 20.5805 22.3618 21.1994 22.3618 21.9635V26.9295C22.3618 27.6936 22.9908 28.3125 23.7673 28.3125H27.1636C27.6728 30.7803 28.6619 33.0756 30.0269 35.104L27.6221 37.4703C27.0732 38.0104 27.0732 38.8861 27.6221 39.4262L31.1905 42.9374C31.7394 43.4775 32.6293 43.4775 33.1782 42.9374L35.583 40.5711C37.6444 41.9143 39.9771 42.8875 42.4851 43.3885V46.7305C42.4851 47.4945 43.1141 48.1134 43.8906 48.1134H48.9375C49.714 48.1134 50.3429 47.4945 50.3429 46.7305V43.3885C52.8509 42.8875 55.1836 41.9143 57.245 40.5711L59.6499 42.9374C60.1988 43.4775 61.0887 43.4775 61.6376 42.9374L65.206 39.4262C65.7549 38.8861 65.7549 38.0104 65.206 37.4703L62.8011 35.104C64.1669 33.0756 65.1552 30.7803 65.6644 28.3125H69.0607C69.8373 28.3133 70.4662 27.6944 70.4662 26.9303ZM46.4136 38.4959C38.5288 38.4959 32.1367 32.2062 32.1367 24.4477C32.1367 16.6891 38.5288 10.3994 46.4136 10.3994C54.2984 10.3994 60.6905 16.6891 60.6905 24.4477C60.6905 32.2062 54.2984 38.4959 46.4136 38.4959Z" fill="#212B4A"/>
<path d="M53.9479 57.23C53.5101 57.23 53.1548 57.5788 53.1548 58.0104V65.4458C53.1548 65.8774 53.5101 66.2263 53.9479 66.2263C54.3858 66.2263 54.7411 65.8774 54.7411 65.4458V58.0104C54.7411 57.5788 54.3866 57.23 53.9479 57.23Z" fill="#1443B7"/>
<path d="M89.6235 13.2568C87.3328 10.807 84.0785 9.40294 80.6957 9.40294H66.1277C66.0293 9.22811 65.9143 9.0611 65.7668 8.91593L62.1976 5.40388C61.3402 4.56099 59.9458 4.5602 59.0884 5.40388L57.1348 7.32692C55.2709 6.19292 53.2587 5.3711 51.1354 4.87707V2.16264C51.1354 0.970107 50.1487 0 48.9367 0H43.8898C42.6771 0 41.6912 0.970107 41.6912 2.16264V4.87785C39.5687 5.37188 37.5557 6.1937 35.6925 7.3277L33.7382 5.40388C32.8808 4.56099 31.4864 4.5602 30.629 5.40388L27.0606 8.91515C26.9122 9.0611 26.7972 9.22733 26.6989 9.40294H12.1317C8.74885 9.40294 5.49452 10.8078 3.20387 13.2568C0.91322 15.7059 -0.239243 19.0143 0.041536 22.332L5.08921 81.9315C5.60952 88.069 10.9197 92.8774 17.1794 92.8774H75.648C81.9084 92.8774 87.2186 88.069 87.7382 81.9315L92.7858 22.332C93.0666 19.0143 91.9141 15.7075 89.6235 13.2568ZM28.1821 10.0195L31.7505 6.50822C31.9901 6.27175 32.3787 6.27253 32.6174 6.50744L35.0223 8.87379C35.288 9.1368 35.7052 9.17738 36.0209 8.9729C38.0474 7.65237 40.2746 6.74314 42.643 6.26862C43.0126 6.19526 43.2783 5.87527 43.2783 5.50456V2.16264C43.2783 1.83017 43.5535 1.56091 43.8906 1.56091H48.9375C49.2754 1.56091 49.5498 1.83095 49.5498 2.16264V5.50456C49.5498 5.87605 49.8155 6.19604 50.1852 6.26862C52.5535 6.74236 54.7815 7.65159 56.8073 8.9729C57.1214 9.17738 57.5393 9.1368 57.8058 8.87379L60.2107 6.50744C60.4495 6.27253 60.8381 6.27253 61.0768 6.50744L64.6461 10.0195C64.7619 10.1334 64.8253 10.2849 64.8253 10.4456C64.8253 10.6064 64.7611 10.7578 64.6461 10.8718L62.2412 13.2381C61.9747 13.5003 61.9327 13.9109 62.1413 14.2207C63.4841 16.2171 64.4081 18.4086 64.8888 20.7375C64.9641 21.1012 65.2885 21.3626 65.6661 21.3626H69.0624C69.4003 21.3626 69.6747 21.6327 69.6747 21.9644V26.9304C69.6747 27.2629 69.4003 27.5329 69.0624 27.5329H65.6661C65.2885 27.5329 64.9641 27.7944 64.8888 28.1581C64.4089 30.487 63.4841 32.6793 62.1413 34.6749C61.9327 34.9839 61.9747 35.3952 62.2412 35.6575L64.6461 38.0238C64.7619 38.1378 64.8253 38.2892 64.8253 38.45C64.8253 38.6107 64.7611 38.7621 64.6461 38.8761L61.0768 42.3874C60.846 42.616 60.4431 42.616 60.2115 42.3874L57.8066 40.021C57.5401 39.758 57.1221 39.7166 56.8081 39.9219C54.7807 41.2432 52.5527 42.1524 50.186 42.6254C49.8163 42.6995 49.5506 43.0195 49.5506 43.3902V46.7322C49.5506 47.0646 49.2762 47.3347 48.9383 47.3347H43.8914C43.5535 47.3347 43.2791 47.0638 43.2791 46.7322V43.3902C43.2791 43.0187 43.0134 42.6988 42.6438 42.6254C40.2778 42.154 38.0498 41.2432 36.0217 39.9219C35.8876 39.8353 35.7354 39.7923 35.5839 39.7923C35.3792 39.7923 35.1754 39.8704 35.0223 40.021L32.6174 42.3874C32.3858 42.6168 31.9829 42.6137 31.7513 42.3874L28.1829 38.8761C28.0671 38.7621 28.0028 38.6107 28.0028 38.45C28.0028 38.2892 28.0671 38.1385 28.1829 38.0238L30.5877 35.6575C30.8542 35.3952 30.8963 34.9847 30.6885 34.6749C29.3457 32.6793 28.4216 30.487 27.941 28.1581C27.8656 27.7944 27.5412 27.5329 27.1637 27.5329H23.7674C23.4295 27.5329 23.155 27.2621 23.155 26.9304V21.9644C23.155 21.6319 23.4295 21.3626 23.7674 21.3626H27.1637C27.5412 21.3626 27.8656 21.1012 27.941 20.7375C28.4216 18.4094 29.3457 16.2171 30.6885 14.2207C30.8963 13.9116 30.8542 13.5003 30.5877 13.2381L28.1829 10.8718C28.0671 10.7578 28.0028 10.6064 28.0028 10.4456C28.0028 10.2849 28.0663 10.1334 28.1821 10.0195ZM6.66998 81.8027L1.62231 22.2024C1.37405 19.2765 2.35043 16.4746 4.3714 14.3143C6.39158 12.1533 9.14702 10.9638 12.1317 10.9638H26.4871C26.5815 11.3424 26.7726 11.6928 27.0606 11.9753L29.0141 13.8984C27.8617 15.734 27.0265 17.714 26.5244 19.801H23.7658C22.5538 19.801 21.5671 20.7711 21.5671 21.9636V26.9296C21.5671 28.1222 22.5538 29.0931 23.7658 29.0931H26.5244C27.0265 31.1808 27.8617 33.1616 29.0141 34.9957L27.0614 36.9179C26.6457 37.3261 26.4165 37.8701 26.4165 38.4484C26.4165 39.0259 26.6457 39.5699 27.0614 39.9781L30.6298 43.4894C31.4602 44.3065 32.9093 44.3065 33.739 43.4894L35.6925 41.5663C36.4643 42.0361 37.2662 42.4381 38.0855 42.7994V91.3157H17.1794C11.7383 91.3173 7.12129 87.1371 6.66998 81.8027ZM91.2051 22.2024L86.1574 81.8019C85.7061 87.1371 81.0891 91.3165 75.648 91.3165H54.7411V69.3482C54.7411 68.9166 54.3857 68.5677 53.9479 68.5677C53.5101 68.5677 53.1548 68.9166 53.1548 69.3482V91.3165H39.671V43.423C40.3333 43.6509 41.0043 43.8577 41.6904 44.0169V46.7322C41.6904 47.9247 42.6771 48.8956 43.8891 48.8956H48.9359C50.1479 48.8956 51.1346 47.9247 51.1346 46.7322V44.0169C51.8215 43.8569 52.4917 43.6509 53.154 43.423V54.5984C53.154 55.03 53.5093 55.3788 53.9471 55.3788C54.3849 55.3788 54.7403 55.03 54.7403 54.5984V42.801C55.5596 42.4396 56.3623 42.0369 57.134 41.5679L59.0876 43.4909C59.9188 44.3081 61.3671 44.3081 62.1968 43.4909L65.766 39.9796C66.1808 39.5715 66.4101 39.0275 66.4101 38.45C66.4101 37.8716 66.1808 37.3284 65.766 36.9203L63.8125 34.9972C64.9649 33.1624 65.8001 31.1816 66.3022 29.0946H69.0608C70.2728 29.0946 71.2594 28.1237 71.2594 26.9312V21.9652C71.2594 20.7726 70.2728 19.8025 69.0608 19.8025H66.3022C65.8009 17.7148 64.9657 15.734 63.8125 13.8999L65.7668 11.9769C66.0539 11.6944 66.2451 11.3439 66.3395 10.9654H80.6949C83.6788 10.9654 86.435 12.1548 88.4552 14.3159C90.4761 16.4746 91.4525 19.2765 91.2051 22.2024Z" fill="#1443B7"/>
<path d="M44.2453 26.7072L43.9724 29.0673C43.9471 29.2882 44.0184 29.509 44.1691 29.6753C44.3198 29.8415 44.5348 29.936 44.7608 29.936H48.0659C48.292 29.936 48.5069 29.8415 48.6576 29.6753C48.8076 29.509 48.8797 29.2882 48.8543 29.0673L48.5815 26.7072C49.1962 26.139 49.5856 25.3399 49.5856 24.4478C49.5856 23.306 48.9487 22.3171 48.0112 21.7763L47.2006 14.7584C47.1546 14.3643 46.8159 14.0662 46.4122 14.0662C46.0085 14.0662 45.6698 14.3643 45.6238 14.7584L44.8132 21.7755C43.8757 22.3171 43.2388 23.306 43.2388 24.4478C43.2404 25.3391 43.6306 26.139 44.2453 26.7072ZM47.1776 28.3743H45.65L45.7523 27.4884C45.9657 27.5329 46.1869 27.5587 46.4138 27.5587C46.6406 27.5587 46.8619 27.5329 47.0753 27.4884L47.1776 28.3743ZM46.413 22.897C47.2879 22.897 47.9993 23.5924 47.9993 24.447C47.9993 25.3016 47.2879 25.9978 46.413 25.9978C45.5381 25.9978 44.8267 25.3016 44.8267 24.447C44.8267 23.5924 45.5381 22.897 46.413 22.897Z" fill="#1443B7"/>
<path d="M46.4128 39.2757C54.7228 39.2757 61.4829 32.6239 61.4829 24.4471C61.4829 16.2702 54.7228 9.61841 46.4128 9.61841C38.1029 9.61841 31.3428 16.2702 31.3428 24.4471C31.3428 32.6239 38.1037 39.2757 46.4128 39.2757ZM46.4128 11.1793C53.8479 11.1793 59.8966 17.1311 59.8966 24.4471C59.8966 31.7631 53.8479 37.7148 46.4128 37.7148C38.9777 37.7148 32.9291 31.7631 32.9291 24.4471C32.9291 17.1311 38.9777 11.1793 46.4128 11.1793Z" fill="#1443B7"/>
</g>
</svg>
