<svg width="96" height="96" viewBox="0 0 96 96" fill="none" xmlns="http://www.w3.org/2000/svg">
<path d="M76.8966 48.1572L76.5943 43.4129C75.6512 43.4069 67.3731 25.1403 74.7018 40.616L85.8337 16.3093L82.5189 28.8029C82.2796 29.7058 81.4625 30.3343 80.5281 30.3343H76.8966C74.417 41.9078 70.9793 58.1039 70.8206 59.2689C70.8455 59.0866 70.8386 58.8791 70.7945 58.6652C70.862 59.4344 70.7564 60.4543 69.6016 60.9599C68.8933 61.2693 68.0702 61.1566 67.4714 60.6678C66.7724 60.0968 66.6524 59.5271 66.7667 58.6125C66.7166 58.8275 66.7037 59.0416 66.7271 59.2398C66.5564 57.8001 61.6976 32.1797 57.689 11.1905L52.2154 30.0893C51.9602 30.97 51.1539 31.5758 50.2369 31.5758H48.2373L47.1392 34.8126C46.851 35.6615 46.0602 36.2298 45.151 36.2103C44.255 36.1941 43.4724 35.6 43.2154 34.7415L41.7421 29.8194L35.0226 57.1539C34.7938 58.0847 33.9538 58.73 32.9954 58.7219C32.0371 58.7093 31.2142 58.0379 31.01 57.1014L23.5402 22.8654L15.6617 43.4129C15.3564 44.2093 14.5917 44.735 13.7386 44.735H0V40.616H12.3226L22.1608 14.9575C22.4868 14.1074 23.3324 13.57 24.2395 13.6408C25.1472 13.7097 25.9023 14.3661 26.0963 15.2559L33.1418 47.5481L39.5467 21.4932C39.7686 20.5909 40.5669 19.9489 41.4956 19.9258C42.4288 19.9048 43.2538 20.5042 43.52 21.3942L45.4707 27.9107C45.8281 27.6235 46.2801 27.4564 46.761 27.4564H48.6892L56.1212 1.79704C56.3863 0.88213 57.2475 0.264992 58.1951 0.312672C59.1466 0.356754 59.9434 1.04736 60.1227 1.98296C60.1494 2.1245 62.8641 16.3039 65.5234 30.31C66.9109 37.6179 68.0426 43.6096 68.8942 48.1572C69.21 46.6578 69.5594 45.0061 69.9408 43.2078C71.5712 35.5188 73.2175 27.8427 73.2175 27.8427C73.4211 26.8933 74.2605 26.215 75.2314 26.215H78.9438L83.9169 7.4697C84.1568 6.56619 84.9746 5.93826 85.9078 5.93826C85.9137 5.93826 85.9201 5.93826 85.926 5.93826C86.867 5.94666 87.6827 6.59168 87.9079 7.50539L89.1594 41.1748L78.5342 31.8768C78.7699 30.9685 79.5898 30.3343 80.5281 30.3343H90.7078V34.4539H82.1213L74.1512 43.2078C50.5663 28.3527 66.3166 34.5727 76.8966 48.1572Z" fill="white"/>
<path d="M21.3062 51.5345L26.8433 46.9836L30.4633 51.3884L24.9262 55.939L21.3062 51.5345Z" fill="#23005C"/>
<path d="M27.6947 53.6635L24.0746 49.259L21.3059 51.5342L24.926 55.939L27.6947 53.6635Z" fill="#73B5E4"/>
<path d="M23.3042 56.9162L31.736 49.9865L33.1841 51.7486L24.7523 58.678L23.3042 56.9162Z" fill="#4E75F3"/>
<path d="M18.0649 51.9841L27.9124 43.8909L29.464 45.7789L19.6165 53.8718L18.0649 51.9841Z" fill="#1E0072"/>
<path d="M21.999 46.3888L25.0901 43.8483L25.3423 44.1551L22.2512 46.6953L21.999 46.3888Z" fill="#1E0072"/>
<path d="M22.2239 44.9784L24.4891 43.1168L24.7413 43.4233L22.4758 45.2852L22.2239 44.9784Z" fill="#1E0072"/>
<path d="M21.6226 44.2469L23.8878 42.3853L24.14 42.6918L21.8748 44.5537L21.6226 44.2469Z" fill="#1E0072"/>
<path d="M21.0215 43.5155L23.2867 41.6539L23.5389 41.9604L21.2737 43.8223L21.0215 43.5155Z" fill="#1E0072"/>
<path d="M20.4202 42.7838L22.6854 40.9222L22.9376 41.229L20.6724 43.0906L20.4202 42.7838Z" fill="#1E0072"/>
<path d="M89.468 56.7399C82.0981 67.1004 65.7101 78.1294 57.4549 79.7661C49.1995 78.1294 32.8118 67.1004 25.4419 56.7399C23.0282 53.3435 21.0541 48.93 19.9317 44.2538C17.7379 35.1276 18.7748 25.0126 26.056 19.5708C37.3935 11.0983 53.7557 17 57.4549 24.5154C61.0114 17.2885 76.2821 11.5526 87.5311 18.6625C87.9797 18.9423 88.4196 19.2482 88.8536 19.5708C99.8657 27.8005 96.5977 46.7164 89.468 56.7399Z" fill="#F6AB68"/>
<path d="M89.4683 56.7392C82.0975 67.0998 65.7098 78.1291 57.4541 79.7664C52.5632 78.7948 44.8145 74.5276 37.7825 69.055C32.9456 65.2943 28.4445 60.9614 25.4428 56.7392C23.0288 53.3447 21.0557 48.9306 19.9312 44.2523C23.4007 49.7942 28.7174 54.2893 34.7478 56.9012C44.7185 61.2163 56.2576 60.8775 66.6574 57.7288C72.5946 55.9296 78.3851 53.1618 82.7275 48.7297C86.9314 44.4382 89.6003 38.675 90.146 32.6896C90.5808 27.8946 89.6512 22.9857 87.5312 18.6616C87.981 18.9435 88.4188 19.2493 88.8536 19.5702C90.4222 20.7427 91.6994 22.1311 92.7159 23.6784C98.8576 33.0074 95.583 48.1449 89.4683 56.7392Z" fill="#F6AB68"/>
<g opacity="0.5">
<path d="M41.894 38.0016C36.2546 43.641 28.3581 44.8876 24.2568 40.7866C20.1554 36.6849 21.4023 28.7887 27.0417 23.1493C32.6808 17.5099 40.5773 16.2631 44.6789 20.3644C48.78 24.4658 47.5334 32.3623 41.894 38.0016Z" fill="white"/>
</g>
<path d="M89.4683 56.7392C82.0975 67.0998 65.7098 78.1291 57.454 79.7664C52.5631 78.7948 44.8145 74.5276 37.7825 69.055C50.566 70.9981 64.0062 68.4852 75.1854 61.972C82.4213 57.7585 88.8479 51.7344 92.2061 44.0607C95.0069 37.6644 95.3998 30.0447 92.7159 23.6784C98.8576 33.0074 95.583 48.1449 89.4683 56.7392Z" fill="#F6AB68"/>
<path d="M75.6863 62.113C81.5158 54.8381 84.8864 46.1419 85.705 36.2611C86.8119 22.9018 82.4694 12.1515 73.4733 5.99509C64.9869 0.180588 53.2649 -0.539108 43.6121 4.15388C37.7766 6.99066 33.2485 11.4767 30.3428 17.1143C31.2664 16.7215 32.208 16.4036 33.1556 16.1547C34.1631 15.8878 35.1797 15.6959 36.1963 15.579C38.5742 12.3344 41.6929 9.71649 45.4323 7.89628C53.7657 3.84502 63.8477 4.44775 71.1196 9.42562C78.826 14.7064 82.5354 24.1133 81.5548 35.9163C80.1724 52.6101 70.3486 66.068 54.5994 72.8364C41.1471 78.6209 28.5495 77.5414 23.3648 73.5831C23.3048 73.5381 23.2478 73.4898 23.1908 73.4452L20.585 76.6928C24.1744 79.5742 29.71 81.0139 36.0253 81.0139C42.3676 81.0139 49.4986 79.5622 56.2427 76.6628C64.0096 73.3222 70.7325 68.2931 75.6863 62.113Z" fill="#000230"/>
<path d="M83.4681 36.8937C82.6975 46.1657 79.5338 54.3252 74.0672 61.1503C69.4192 66.9498 63.1099 71.6728 55.82 74.8064C49.4897 77.5293 42.8026 78.8877 36.8501 78.8877C30.9217 78.8877 25.7309 77.5353 22.3604 74.8334L23.3649 73.583C28.5497 77.5413 41.1473 78.6208 54.5995 72.8363C70.3488 66.0682 80.1726 52.61 81.555 35.9161C82.5355 24.1132 78.8261 14.7062 71.1194 9.42549C63.8476 4.44762 53.7659 3.84489 45.4325 7.89615C41.6931 9.71637 38.5744 12.3342 36.1964 15.5788C35.1799 15.6958 34.1633 15.8877 33.1557 16.1546C35.8276 12.1603 39.486 8.94569 43.9691 6.76563C53.0252 2.36052 64.0245 3.03822 71.9891 8.49289C80.4274 14.2714 84.5057 24.3591 83.4681 36.8937Z" fill="#73B5E4"/>
<path d="M28.1033 55.8848C34.3949 60.4525 35.7929 69.2561 31.225 75.548C26.657 81.8399 17.8537 83.2373 11.5618 78.6694C5.26992 74.1017 3.87222 65.2984 8.44016 59.0065C13.0081 52.7146 21.8114 51.3172 28.1033 55.8848Z" fill="#23005C"/>
<path d="M26.7711 57.7198C32.0497 61.5518 33.2219 68.9373 29.3898 74.2157C25.5581 79.494 18.1726 80.6665 12.8942 76.8345C7.61559 73.0024 6.44309 65.6172 10.2751 60.3385C14.1072 55.0602 21.4927 53.8877 26.7711 57.7198Z" fill="#E9F4F3"/>
<path d="M10.2753 60.3387C9.25154 61.7487 8.58852 63.3095 8.26196 64.9123C8.53425 64.3842 8.85001 63.87 9.20986 63.3743C13.0419 58.0959 20.4271 56.9234 25.7058 60.7555C29.5741 63.5638 31.2339 68.2802 30.3379 72.6775C32.9657 67.5815 31.5539 61.1921 26.7712 57.7199C21.4929 53.8876 14.1074 55.06 10.2753 60.3387Z" fill="#AFF2F0"/>
<path d="M25.1862 59.0853C25.0198 59.3144 24.7022 59.3789 24.4587 59.2259C20.3559 56.6542 14.9105 57.7125 12.0621 61.636C9.21388 65.5592 9.89369 71.0646 13.61 74.1691C13.8403 74.3613 13.8721 74.702 13.6787 74.9341C13.4864 75.1641 13.144 75.195 12.914 75.0025C8.76078 71.5336 8.0006 65.3817 11.1834 60.9979C14.366 56.6141 20.4507 55.4314 25.0354 58.3056C25.2897 58.4652 25.3665 58.8004 25.2072 59.0541C25.2003 59.0652 25.1934 59.0754 25.1862 59.0853Z" fill="#4E75F3"/>
<path d="M25.9637 59.65C25.7976 59.8791 25.8347 60.2012 26.0554 60.3853C29.7718 63.4901 30.4516 68.9952 27.6034 72.9187C24.7549 76.8419 19.3098 77.9005 15.2067 75.3285C14.9527 75.1692 14.619 75.2445 14.4582 75.5C14.299 75.7543 14.3758 76.0892 14.63 76.2488C19.2151 79.123 25.2995 77.9403 28.482 73.5568C31.6645 69.173 30.9047 63.0211 26.7514 59.5519C26.5214 59.3594 26.179 59.3903 25.9868 59.6203C25.9787 59.6302 25.9709 59.6401 25.9637 59.65Z" fill="#F6AB68"/>
<path d="M21.3405 66.5989C21.7153 67.4316 21.3437 68.4104 20.511 68.7852C19.6783 69.1598 18.6995 68.7885 18.3246 67.9555C17.9501 67.123 18.3213 66.144 19.1541 65.7694C19.9868 65.3946 20.9656 65.7661 21.3405 66.5989Z" fill="#23005C"/>
<path d="M20.2855 69.9744L16.6003 60.0933L21.5509 69.4052L20.2855 69.9744Z" fill="#23005C"/>
<path d="M17.1235 69.741C19.359 71.9949 20.0379 74.9462 18.6393 76.3334C17.241 77.7206 14.2951 77.0183 12.0596 74.7645C9.82373 72.5106 9.14512 69.5593 10.5434 68.1721C11.9417 66.7849 14.8877 67.4872 17.1235 69.741Z" fill="white"/>
</svg>
