<svg width="97" height="96" viewBox="0 0 97 96" fill="none" xmlns="http://www.w3.org/2000/svg">
<path fill-rule="evenodd" clip-rule="evenodd" d="M96.4737 47.755C96.4737 74.1297 74.8784 95.5101 48.2374 95.5101C21.5953 95.5101 0 74.1297 0 47.755C0 21.3793 21.5953 0 48.2374 0C74.8784 0 96.4737 21.3793 96.4737 47.755Z" fill="#F6AB68"/>
<path fill-rule="evenodd" clip-rule="evenodd" d="M88.3262 43.8264C88.3262 67.851 68.6277 87.3264 44.3267 87.3264C20.0246 87.3264 0.326172 67.851 0.326172 43.8264C0.326172 19.8008 20.0246 0.326416 44.3267 0.326416C68.6277 0.326416 88.3262 19.8008 88.3262 43.8264Z" fill="#F6AB68"/>
<path fill-rule="evenodd" clip-rule="evenodd" d="M75.2213 41.5982C75.7217 41.9038 76.3816 41.5563 76.3816 40.9747V40.9604C76.3816 37.4768 73.5293 34.6509 70.0106 34.6509C66.4907 34.6509 63.6384 37.4768 63.6384 40.9604V40.9747C63.6384 41.5563 64.2983 41.9038 64.7987 41.5982C66.3135 40.6713 68.0979 40.135 70.0106 40.135C71.9221 40.135 73.7066 40.6713 75.2213 41.5982Z" fill="#4E75F3"/>
<path fill-rule="evenodd" clip-rule="evenodd" d="M31.6781 41.5982C32.1764 41.9038 32.834 41.5563 32.8384 40.9747V40.9604C32.8384 37.4768 29.984 34.6509 26.463 34.6509C22.9431 34.6509 20.0908 37.4768 20.0908 40.9604V40.9747C20.093 41.5563 20.7518 41.9038 21.2511 41.5982C22.767 40.6713 24.5503 40.135 26.463 40.135C28.3767 40.135 30.1612 40.6713 31.6781 41.5982Z" fill="#4E75F3"/>
<path fill-rule="evenodd" clip-rule="evenodd" d="M48.499 64.7082C40.426 64.7082 32.4377 61.6185 26.5827 56.2304C25.6286 55.3521 25.574 53.8745 26.4624 52.93C27.3473 51.9854 28.8409 51.9292 29.795 52.8097C34.7873 57.4012 41.6041 60.0373 48.499 60.0373C55.1476 60.0373 61.7894 57.5601 66.7215 53.2423C67.699 52.3893 69.1881 52.4798 70.0508 53.4442C70.9146 54.4108 70.8221 55.8861 69.8468 56.7413C63.9796 61.879 56.3981 64.7082 48.499 64.7082Z" fill="#4E75F3"/>
</svg>
