<svg width="96" height="96" viewBox="0 0 96 96" fill="none" xmlns="http://www.w3.org/2000/svg">
<g clip-path="url(#clip0_209_3185)">
<path d="M77.7215 26.7584L69.2422 18.2791L85.7649 1.75637C88.1064 -0.585131 91.9027 -0.585131 94.2442 1.75637C96.5857 4.09787 96.5857 7.89418 94.2442 10.2357L77.7215 26.7584Z" fill="white"/>
<path d="M95.4724 3.53297C93.267 2.53791 90.5824 2.94628 88.7685 4.76016L72.2469 21.2817L69.2432 18.278L85.7647 1.75641C88.1075 -0.586406 91.9042 -0.584531 94.2452 1.75641C94.7743 2.28553 95.1845 2.88891 95.4724 3.53297Z" fill="#CBE2FF"/>
<path d="M85.9727 18.6356C81.8196 23.4919 77.7564 31.2056 78.5608 38.475C78.8158 40.7794 78.1127 43.0875 76.5977 44.8425C70.2077 52.2469 52.8283 71.7375 29.7564 92.4094C17.9196 87.5437 8.45645 78.0806 3.59082 66.2437C24.2627 43.1719 43.7533 25.7925 51.1577 19.4025C52.9146 17.8875 55.2208 17.1844 57.5252 17.4394C64.7946 18.2437 72.5083 14.1806 77.3646 10.0275C77.9646 9.51561 78.5196 9.00186 79.0258 8.49561L87.5046 16.9744C86.9983 17.4806 86.4846 18.0356 85.9727 18.6356Z" fill="#1443B7"/>
<path d="M82.0296 11.4994C81.5983 11.9306 81.1296 12.3637 80.6271 12.795C75.7539 16.9894 67.7852 21.1144 62.2127 22.1287C60.4764 22.4419 58.5283 23.5012 56.8258 25.0706C49.4439 31.8712 29.5502 50.5462 7.63332 73.9819C6.06207 71.5462 4.70645 68.9587 3.59082 66.2456C24.2608 43.1756 43.7533 25.7944 51.1577 19.4025C52.9146 17.8875 55.2208 17.1862 57.5252 17.4431C64.7983 18.2456 72.5102 14.1806 77.3646 10.0275C77.9646 9.51561 78.5196 9.00186 79.0258 8.49561L82.0296 11.4994Z" fill="#1443B7"/>
<path d="M26.7725 79.3147C23.4551 76.5484 20.3945 73.4876 17.628 70.1702C15.492 67.6087 15.6774 63.8353 18.0358 61.4769C26.9962 52.5165 35.9567 43.556 44.9171 34.5956C47.2755 32.2372 51.0489 32.0518 53.6104 34.1878C56.9278 36.9542 59.9884 40.0149 62.7547 43.3322C64.8907 45.8936 64.7053 49.667 62.3469 52.0254L35.4658 78.9069C33.1074 81.2651 29.334 81.4507 26.7725 79.3147Z" fill="#73B5E4"/>
<path d="M24.7781 72.1642C23.3415 70.7276 21.9534 69.2083 20.6524 67.6479C19.8319 66.6641 19.9057 65.1765 20.8203 64.2619L47.7017 37.3805C48.6165 36.4657 50.1037 36.3919 51.0877 37.2125C52.6481 38.5138 54.1674 39.9017 55.604 41.3383C57.0407 42.7749 58.4287 44.2942 59.7298 45.8546C60.5505 46.8386 60.4766 48.3259 59.5618 49.2407L32.6805 76.122C31.7657 77.0368 30.2782 77.1105 29.2942 76.2898C27.7338 74.9889 26.2147 73.6009 24.7781 72.1642Z" fill="white"/>
<path d="M31.6382 64.9325C31.6415 64.8694 31.6428 64.8058 31.6428 64.742C31.6428 63.7685 31.2639 62.8532 30.5756 62.1648C29.8871 61.4765 28.9719 61.0974 27.9984 61.0974C27.0249 61.0974 26.1097 61.4765 25.4214 62.1648C24.1925 63.3935 24.0032 65.3312 24.9708 66.7721C25.2594 67.2018 25.8418 67.3162 26.2717 67.0277C26.7015 66.7389 26.8158 66.1565 26.5271 65.7268C26.0578 65.0278 26.1502 64.0875 26.7472 63.4907C27.0813 63.1565 27.5255 62.9724 27.9984 62.9724C28.4713 62.9724 28.9155 63.1564 29.2498 63.4907C29.5839 63.825 29.768 64.2693 29.768 64.742C29.768 65.2147 29.5841 65.6591 29.2498 65.9934C29.0666 66.1764 28.9751 66.4164 28.9751 66.6564C28.9751 66.8962 29.0666 67.1362 29.2496 67.3192C29.6158 67.6854 30.2096 67.6854 30.5754 67.3192C31.2656 66.6296 32.3882 66.629 33.0783 67.3192C33.4125 67.6535 33.5968 68.0979 33.5968 68.5706C33.5968 69.0433 33.4127 69.4877 33.0783 69.822C32.4573 70.443 31.4621 70.5133 30.7629 69.9853C30.6971 69.9356 30.6341 69.8807 30.5754 69.822C30.2096 69.456 29.6156 69.456 29.2498 69.822C28.8836 70.1882 28.8836 70.7818 29.2498 71.1478C29.3696 71.2676 29.4984 71.3797 29.6332 71.4815C30.2812 71.9709 31.0528 72.2113 31.8219 72.2113C32.763 72.2113 33.7007 71.8515 34.404 71.1478C35.825 69.7267 35.825 67.4145 34.404 65.9934C33.6455 65.2348 32.6313 64.8806 31.6382 64.9325Z" fill="#4A80AA"/>
<path d="M34.3577 59.8891C34.1231 60.1236 33.9281 60.3824 33.7641 60.6546C33.1897 58.6803 33.3919 57.118 33.3958 57.0895C33.4693 56.5784 33.1153 56.1038 32.604 56.0288C32.0906 55.9538 31.6155 56.308 31.5401 56.8201C31.5137 56.9997 30.9294 61.2621 33.9956 65.1241C34.0026 65.1327 34.0104 65.1402 34.0176 65.1486C34.1222 65.2846 34.233 65.4171 34.3575 65.5416H34.3577C35.1124 66.2965 36.1162 66.7122 37.1837 66.7122C38.2513 66.7122 39.2552 66.2965 40.0099 65.5416C41.5684 63.9831 41.5684 61.4476 40.0099 59.8891C38.4516 58.3306 35.9158 58.3309 34.3577 59.8891ZM38.6842 64.2158C38.2834 64.6167 37.7507 64.8372 37.1837 64.8372C36.6171 64.8372 36.0842 64.6165 35.6833 64.2158H35.6835C34.8561 63.3884 34.8561 62.0423 35.6833 61.2151C36.5109 60.388 37.8566 60.3876 38.6842 61.2151C39.5117 62.0423 39.5117 63.3884 38.6842 64.2158Z" fill="#4A80AA"/>
<path d="M47.5236 52.3757C45.9651 50.8172 43.4295 50.8174 41.871 52.3757C41.6365 52.6102 41.4416 52.8688 41.2778 53.1411C40.704 51.1689 40.9052 49.608 40.9095 49.5763C40.983 49.065 40.6292 48.5904 40.1177 48.5154C39.6045 48.4402 39.1292 48.7946 39.0538 49.3067C39.0274 49.4863 38.443 53.7489 41.5093 57.6109C41.5161 57.6195 41.524 57.6268 41.5309 57.6351C41.6355 57.7712 41.7465 57.9039 41.8712 58.0284C42.6503 58.8077 43.6736 59.1971 44.6974 59.1971C45.7208 59.1971 46.7445 58.8073 47.5236 58.0284C49.0821 56.4699 49.0821 53.9342 47.5236 52.3757ZM46.198 56.7024C45.3703 57.5299 44.0241 57.5297 43.1968 56.7024C42.3696 55.8752 42.3696 54.5289 43.1968 53.7017C43.6106 53.2879 44.1538 53.0812 44.6974 53.0812C45.2406 53.0812 45.7841 53.2881 46.1978 53.7017C47.0252 54.5289 47.0252 55.8752 46.198 56.7024Z" fill="#4A80AA"/>
<path d="M43.2062 60.3722C42.94 59.9282 42.3642 59.784 41.9202 60.0506C41.4762 60.317 41.3322 60.8929 41.5986 61.3369L42.8534 63.4282C43.0292 63.7213 43.3395 63.8837 43.6581 63.8837C43.8222 63.8837 43.9887 63.8405 44.1394 63.75C44.5834 63.4835 44.7274 62.9077 44.461 62.4637L43.2062 60.3722Z" fill="#4A80AA"/>
<path d="M22.2954 30.0289L26.7913 29.0441C28.1829 28.7392 28.1829 26.7549 26.7913 26.4501L22.2954 25.4653C21.789 25.3543 21.3933 24.9589 21.2825 24.4524L20.2978 19.9566C19.9929 18.5649 18.0086 18.5649 17.7037 19.9566L16.719 24.4524C16.608 24.9589 16.2125 25.3545 15.7061 25.4653L11.2102 26.4501C9.8186 26.7549 9.8186 28.7392 11.2102 29.0441L15.7061 30.0289C16.2125 30.1399 16.6082 30.5353 16.719 31.0417L17.7037 35.5376C18.0086 36.9292 19.9929 36.9292 20.2978 35.5376L21.2825 31.0417C21.3935 30.5353 21.789 30.1397 22.2954 30.0289Z" fill="white"/>
<path d="M84.5669 47.6387L89.0628 46.654C90.4544 46.3491 90.4544 44.3648 89.0628 44.0599L84.5669 43.0752C84.0605 42.9642 83.6648 42.5687 83.554 42.0623L82.5693 37.5664C82.2644 36.1748 80.2801 36.1748 79.9752 37.5664L78.9905 42.0623C78.8795 42.5687 78.484 42.9644 77.9776 43.0752L73.4817 44.0599C72.0901 44.3648 72.0901 46.3491 73.4817 46.654L77.9776 47.6387C78.484 47.7497 78.8796 48.1452 78.9905 48.6516L79.9752 53.1475C80.2801 54.5391 82.2644 54.5391 82.5693 53.1475L83.554 48.6516C83.6648 48.1452 84.0605 47.7497 84.5669 47.6387Z" fill="white"/>
</g>
<defs>
<clipPath id="clip0_209_3185">
<rect width="96" height="96" fill="white"/>
</clipPath>
</defs>
</svg>
